<svg xmlns="http://www.w3.org/2000/svg" width="259.615" height="121.125" viewBox="0 0 259.615 121.125">
  <g id="Group_170" data-name="Group 170" transform="translate(-1488.291 -539.85)">
    <path id="Path_1322" data-name="Path 1322" d="M372.009,171.4c-1.889,2.156-4.161,5.541-6,13.472a63.017,63.017,0,0,1-10.7,22.8,49.317,49.317,0,0,0-9.245,29.659c0,7.743,1.883,18.437,13.214,25.05a44.8,44.8,0,0,0,41.729,0c11.329-6.613,13.212-17.307,13.212-25.05a49.317,49.317,0,0,0-9.245-29.659,62.984,62.984,0,0,1-10.7-22.8c-1.836-7.931-4.133-11.37-5.8-13.472-1.38-1.735-3.715-3.045-8.33-3.082C375.3,168.279,373.328,169.9,372.009,171.4Z" transform="translate(1333.684 393.436)" fill="#4cb497"/>
    <path id="Path_1324" data-name="Path 1324" d="M4.8,18.861,13.979,0,1.814,1.71,0,18.429Z" transform="translate(1718.068 539.85) rotate(8)" fill="#4e5166"/>
    <path id="Path_1323" data-name="Path 1323" d="M905.881,235.1s-.454,1.4-1.365,3.754a79.9,79.9,0,0,1-4.37,9.445c-1.024,1.878-2.221,3.86-3.545,5.915-1.3,2.052-2.9,4.1-4.439,6.363a50.1,50.1,0,0,0-4.2,7.617,55.1,55.1,0,0,0-2.908,8.49,58.414,58.414,0,0,0-1.4,8.846,56.4,56.4,0,0,0-.042,8.642,32.147,32.147,0,0,0,4.422,14.755,23.356,23.356,0,0,0,3.808,4.809,16.911,16.911,0,0,0,1.889,1.685,15.944,15.944,0,0,0,1.72,1.262,19.115,19.115,0,0,0,2.553,1.506l.919.484-.8-.666a26.772,26.772,0,0,1-2.18-1.94,15.331,15.331,0,0,1-1.432-1.489,20.32,20.32,0,0,1-1.54-1.853,26.364,26.364,0,0,1-2.949-4.893,30.553,30.553,0,0,1-2.121-6.357,41.2,41.2,0,0,1-.823-7.452,69.988,69.988,0,0,1,.363-8.141,55.332,55.332,0,0,1,1.432-8.241,50.941,50.941,0,0,1,2.576-7.922,57.9,57.9,0,0,1,3.589-7.2c1.437-2.284,2.869-4.518,4.071-6.777a60.662,60.662,0,0,0,3.065-6.464,54.319,54.319,0,0,0,3.088-10.2c.26-1.257.393-2.259.482-2.936Z" transform="translate(795.55 338.075)" fill="#424b41"/>
    <path id="Path_557" data-name="Path 557" d="M835.163,229.942q19.735.232,33.883,12.875,14.488,12.644,14.832,33.388-.233,22.2-13.637,35.719-13.462,13.694-35.079,13.926-21.621-.232-34.911-13.926-13.577-13.52-13.8-35.719.341-20.742,14.943-33.388Q815.537,230.173,835.163,229.942Zm0,22.851a24.536,24.536,0,0,0-17.551,7.115,22.124,22.124,0,0,0-7.376,16.425q.116,11.742,7.376,19.087a24.246,24.246,0,0,0,35.216,0q7.145-7.346,7.26-19.087a22.282,22.282,0,0,0-7.26-16.425Q845.852,252.911,835.163,252.793Z" transform="translate(701.844 330.15)" fill="#4e5166"/>
    <path id="Path_558" data-name="Path 558" d="M850.613,328.449h-21.2V228.3h21.2Z" transform="translate(769.809 327.551)" fill="#4e5166"/>
    <path id="Path_559" data-name="Path 559" d="M854.91,229.143a12.274,12.274,0,0,1,8.54,3.534,13.084,13.084,0,0,1,3.359,8.778A12.2,12.2,0,0,1,863.45,250a11.282,11.282,0,0,1-8.54,3.769A10.418,10.418,0,0,1,846.653,250a11.1,11.1,0,0,1-3.643-8.543,11.855,11.855,0,0,1,3.643-8.778A11.28,11.28,0,0,1,854.91,229.143Zm10.6,97.971h-21.2V265.2h21.2Z" transform="translate(791.314 328.886)" fill="#4e5166"/>
    <path id="Path_1325" data-name="Path 1325" d="M12.873,36.736a19.087,19.087,0,0,0-.465-5.285,24.541,24.541,0,0,0-1.03-3.393c-.216-.593-.489-1.17-.757-1.77l-.805-1.667c-.381-.9-.822-1.989-1.178-3.027a32.3,32.3,0,0,1-.928-3.256c-.283-1.1-.466-2.239-.647-3.38l-.22-1.715-.158-1.691A23.426,23.426,0,0,1,6.62,8.547a15.771,15.771,0,0,1,.342-2.7,12.959,12.959,0,0,1,.711-2.326,14.257,14.257,0,0,1,.871-1.842c.291-.506.532-.935.72-1.207L9.535.028l-.5.082A6.807,6.807,0,0,0,7.643.5a8.757,8.757,0,0,0-2.06,1.07,10.446,10.446,0,0,0-2.3,2.169A13.348,13.348,0,0,0,1.347,7.094a17.481,17.481,0,0,0-1.08,4.179c-.055.414-.1.727-.126,1.041L.074,13.425a20.317,20.317,0,0,0-.005,2.213,24.347,24.347,0,0,0,.616,4.534A23.2,23.2,0,0,0,2.2,24.521a21.43,21.43,0,0,0,2.292,3.835l.582.719a8.594,8.594,0,0,0,.595.693L6.723,31c.687.809,1.33,1.593,1.916,2.341,1.176,1.488,2.152,2.834,2.857,3.814.69.975,1.131,1.58,1.131,1.58A11.339,11.339,0,0,0,12.873,36.736Z" transform="matrix(-0.999, -0.052, 0.052, -0.999, 1738.907, 642.713)" fill="#fff"/>
  </g>
</svg>
