<svg xmlns="http://www.w3.org/2000/svg" width="176.355" height="308.833" viewBox="0 0 176.355 308.833"><g transform="translate(19212.691 3458.15)"><path d="M88.6,252.578a121.345,121.345,0,0,1-24.336-2.265,95.074,95.074,0,0,1-24.628-8.581L37,240.6l-.447-.231a45.623,45.623,0,0,1-6.053-3.6,40.389,40.389,0,0,1-4.378-3.215,43.067,43.067,0,0,1-4.806-4.29,59.141,59.141,0,0,1-9.695-12.241,69.614,69.614,0,0,1-7.587-17.041,92.227,92.227,0,0,1-3.671-20.52,143.453,143.453,0,0,1,.106-22,148.7,148.7,0,0,1,3.561-22.519,139.944,139.944,0,0,1,7.4-21.612A126.5,126.5,0,0,1,22.122,93.935c1.621-2.383,3.28-4.687,4.884-6.915,2.3-3.2,4.48-6.223,6.416-9.282,3.5-5.44,6.54-10.505,9.023-15.056,4.976-9.154,9.756-19.442,10.881-23.422.041-.167.083-.333.125-.5l.037-.146c.388-1.787,1.155-4.359,1.729-6.2.3-.973.6-1.924.9-2.826.2-.6.328-.988.342-1.031a.084.084,0,0,1,0,.021,81.22,81.22,0,0,1,3.745-9.1A50.587,50.587,0,0,1,67.893,7.849a20.725,20.725,0,0,1,6.882-5.342C78.347.82,82.728,0,88.169,0c.142,0,.288,0,.434,0,10.277.083,17.016,2.576,21.206,7.846a58.286,58.286,0,0,1,7.229,11.584,109.686,109.686,0,0,1,7.542,22.71c4.652,20.113,13.561,39.1,27.236,58.048a122.13,122.13,0,0,1,18.229,37.022,136.162,136.162,0,0,1,5.307,38.475c0,12.619-1.963,23.4-6,32.963-5.461,12.926-14.758,23.291-27.632,30.806a94.07,94.07,0,0,1-28.776,10.857A121.373,121.373,0,0,1,88.6,252.578ZM59.145,43.992h0c-.047.1-4.739,9.916-8.391,16.236-3.628,6.279-4.923,8.345-9.9,15.791-2.976,4.451-5.219,7.457-7.389,10.363-1.4,1.873-2.841,3.807-4.457,6.1a125.072,125.072,0,0,0-11.074,19.537,135.4,135.4,0,0,0-7.65,21.685A131.867,131.867,0,0,0,6.7,155.495a141.48,141.48,0,0,0-.075,22.465c1,14.461,4.866,26.93,11.5,37.062l.261.42a25.7,25.7,0,0,0,2.53,3.788c.379.458.953,1.15,2.1,2.639a90.209,90.209,0,0,0,9.867,10.064l-.045-.049c-1.135-1.251-4.993-5.548-6.968-8.309a61.848,61.848,0,0,1-4.365-7.3l0-.005c-.427-.8-.869-1.618-1.371-2.532a66.478,66.478,0,0,1-5.788-16.1,112.824,112.824,0,0,1-2.3-20.176,176.332,176.332,0,0,1,.964-21.035,138.24,138.24,0,0,1,3.786-21.237,129.029,129.029,0,0,1,6.791-20.528,152.147,152.147,0,0,1,9.762-19.043l1.259-1.926c3.372-5.154,6.858-10.483,9.728-15.684a142.715,142.715,0,0,0,7.9-16.016c4.239-9.9,6.88-17.917,6.907-18ZM125.5,105.934h0a29.78,29.78,0,0,0-.893,5.056,48.253,48.253,0,0,0,.48,13.5,62.658,62.658,0,0,0,2.165,8.761c.375,1.218.831,2.391,1.315,3.633l.025.064q.1.253.2.507l.02.051.135.347,1.824,4.345c1.106,3.049,1.954,5.617,2.593,7.852a83.17,83.17,0,0,1,1.923,8.4c.587,2.915.909,5.975,1.192,8.675l.333,4.392.175,4.32a58.849,58.849,0,0,1-.238,7.65,40,40,0,0,1-1.228,6.807,32.823,32.823,0,0,1-2.115,5.819,36.178,36.178,0,0,1-2.461,4.565l-.355.549-.018.027c-.635.986-1.183,1.837-1.618,2.4l-.75,1.1,1.281-.14.386-.061.013,0,.1-.015a14.831,14.831,0,0,0,3.1-.736,22.166,22.166,0,0,0,5.379-2.447,26.829,26.829,0,0,0,6.144-5.206,34.144,34.144,0,0,0,5.358-8.262,44.254,44.254,0,0,0,3.3-10.479l.083-.44.013-.068c.154-.816.276-1.461.363-2.121l.32-2.816a51.908,51.908,0,0,0,.309-5.626,62.144,62.144,0,0,0-.961-11.606,59.164,59.164,0,0,0-3.271-11.258,54.373,54.373,0,0,0-5.317-10.054l-1.382-1.905a13.371,13.371,0,0,0-1.021-1.352l-.118-.144c-.09-.11-.181-.22-.28-.344l-2.519-3.282c-1.641-2.149-3.174-4.237-4.558-6.207-2.7-3.807-4.9-7.2-6.755-10.075-1.3-2.059-2.244-3.518-2.554-4l-.023-.035-.087-.135Z" transform="translate(-19212.188 -3402.396)" stroke="rgba(0,0,0,0)" stroke-miterlimit="10" stroke-width="1"/><path d="M12.211,48.013,35.584,0,4.619,4.352,0,46.913Z" transform="translate(-19112.795 -3458.15) rotate(8)"/></g></svg>