<svg id="CV_icon" data-name="CV icon" xmlns="http://www.w3.org/2000/svg" width="24" height="24.001" viewBox="0 0 24 24.001">
  <path id="Subtraction_3" data-name="Subtraction 3" d="M18834,4114h-18a3.006,3.006,0,0,1-3-3v-18a3.006,3.006,0,0,1,3-3h15.779c.4,0,1.746,1.2,2.9,2.4a11.4,11.4,0,0,1,2.316,2.888V4111A3.006,3.006,0,0,1,18834,4114Zm-12.773-14.145a5.587,5.587,0,0,0-4.018,1.442,5.264,5.264,0,0,0-1.5,3.952,4.742,4.742,0,0,0,1.4,3.536,5.021,5.021,0,0,0,3.664,1.375,6.029,6.029,0,0,0,2.969-.6v-2.439a4.026,4.026,0,0,1-2.217.709,2.7,2.7,0,0,1-2.01-.743,2.814,2.814,0,0,1-.729-2.047,2.854,2.854,0,0,1,.762-2.1,2.809,2.809,0,0,1,2.07-.766,3.45,3.45,0,0,1,2.123.709v-2.572A5.2,5.2,0,0,0,18821.227,4099.857Zm3.262.241,3.48,9.824h3.455l3.654-9.824h-3.162l-1.75,6.108a9.971,9.971,0,0,0-.354,1.692h-.037a8.839,8.839,0,0,0-.336-1.749l-1.707-6.051Zm7.072-9.147c-.021,0-.039.019-.061.066a10.727,10.727,0,0,0-.123,2.454,9.539,9.539,0,0,0,.184,2.175,12.792,12.792,0,0,0,2.838.2c1.164,0,1.857-.074,1.857-.2A33.939,33.939,0,0,0,18831.561,4090.95Z" transform="translate(-18813.002 -4090)" fill="#4e5166"/>
</svg>
