<svg xmlns="http://www.w3.org/2000/svg" width="24.766" height="13.174" viewBox="0 0 24.766 13.174">
  <path id="CV_icon" data-name="CV icon" d="M-16.377-1.416a7.664,7.664,0,0,1-3.79.761,6.41,6.41,0,0,1-4.686-1.754,6.058,6.058,0,0,1-1.791-4.526,6.674,6.674,0,0,1,1.92-5.048,7.1,7.1,0,0,1,5.134-1.846,6.587,6.587,0,0,1,3.214.589v3.287a4.419,4.419,0,0,0-2.711-.908,3.572,3.572,0,0,0-2.643.975,3.639,3.639,0,0,0-.975,2.693,3.579,3.579,0,0,0,.932,2.619,3.426,3.426,0,0,0,2.564.951,5.116,5.116,0,0,0,2.834-.908Zm14.5-12.107L-6.551-.962h-4.416L-15.42-13.523h4.146l2.183,7.74A11.3,11.3,0,0,1-8.661-3.55h.049a12.669,12.669,0,0,1,.454-2.159l2.233-7.814Z" transform="translate(26.644 13.83)" fill="#4e5166"/>
</svg>
