<svg xmlns="http://www.w3.org/2000/svg" xmlns:xlink="http://www.w3.org/1999/xlink" width="24" height="23.408" viewBox="0 0 24 23.408">
  <defs>
    <clipPath id="clip-path">
      <rect width="24" height="23.408" fill="none"/>
    </clipPath>
  </defs>
  <g id="Octicons-mark-github" clip-path="url(#clip-path)">
    <path id="Octicons-mark-github-2" data-name="Octicons-mark-github" d="M12,0A12,12,0,0,0,8.2,23.385c.6.105.825-.255.825-.57,0-.285-.015-1.23-.015-2.235C6,21.135,5.22,19.845,4.98,19.17a4.364,4.364,0,0,0-1.23-1.695c-.42-.225-1.02-.78-.015-.8A2.4,2.4,0,0,1,5.58,17.91a2.565,2.565,0,0,0,3.495.99,2.524,2.524,0,0,1,.765-1.605c-2.67-.3-5.46-1.335-5.46-5.925A4.67,4.67,0,0,1,5.61,8.145a4.312,4.312,0,0,1,.12-3.18s1-.315,3.3,1.23a11.314,11.314,0,0,1,6,0c2.295-1.56,3.3-1.23,3.3-1.23a4.312,4.312,0,0,1,.12,3.18,4.643,4.643,0,0,1,1.23,3.225c0,4.6-2.8,5.625-5.475,5.925a2.842,2.842,0,0,1,.81,2.22c0,1.6-.015,2.895-.015,3.3,0,.315.225.69.825.57A12.006,12.006,0,0,0,12,0Z" fill="#4e5166" fill-rule="evenodd"/>
  </g>
</svg>
