<svg xmlns="http://www.w3.org/2000/svg" width="20.397" height="19.347" viewBox="0 0 20.397 19.347">
  <path id="linkedin_icon" data-name="linkedin icon" d="M3.469-11.332a2.363,2.363,0,0,1-1.677-.608,1.96,1.96,0,0,1-.653-1.492,1.89,1.89,0,0,1,.653-1.485,2.442,2.442,0,0,1,1.677-.576,2.436,2.436,0,0,1,1.684.576A1.9,1.9,0,0,1,5.8-13.432a1.952,1.952,0,0,1-.647,1.511A2.4,2.4,0,0,1,3.469-11.332Zm2,15.186H1.42V-9.258H5.466Zm16.07,0H17.5V-3.432q0-3.047-2.177-3.047a2.16,2.16,0,0,0-1.729.807,3.073,3.073,0,0,0-.679,2.049V3.854H8.872V-9.258h4.046v2.074h.051a4.637,4.637,0,0,1,4.213-2.394q4.353,0,4.354,5.4Z" transform="translate(-1.138 15.494)" fill="#4e5166"/>
</svg>
