<svg xmlns="http://www.w3.org/2000/svg" width="707.389" height="330.302" viewBox="0 0 707.389 330.302">
  <g id="Group_226" data-name="Group 226" transform="translate(19697.709 3828.15)">
    <path id="Path_1322" data-name="Path 1322" d="M416.7,176.711c-5.143,5.87-11.33,15.087-16.323,36.682-5.258,22.71-15.425,43.094-29.138,62.091-18.425,25.535-25.173,53.145-25.173,80.756,0,21.082,5.128,50.2,35.979,68.207,20.99,12.252,42.145,14.036,56.808,14.036s35.818-1.784,56.813-14.036c30.846-18.006,35.974-47.125,35.974-68.207,0-27.61-6.747-55.221-25.173-80.756-13.713-19-23.881-39.38-29.133-62.091-5-21.595-11.252-30.957-15.8-36.682-3.758-4.724-10.116-8.292-22.682-8.393C425.676,168.213,420.294,172.62,416.7,176.711Z" transform="translate(-19522.461 -3936.83)" fill="#4cb497" stroke="rgba(0,0,0,0)" stroke-miterlimit="10" stroke-width="1"/>
    <path id="Path_1325" data-name="Path 1325" d="M34.94,99.949A51.971,51.971,0,0,0,33.672,85.56a66.821,66.821,0,0,0-2.805-9.238c-.587-1.614-1.331-3.185-2.062-4.82l-2.192-4.54c-1.038-2.453-2.239-5.415-3.208-8.241a87.944,87.944,0,0,1-2.525-8.865c-.771-3-1.269-6.1-1.76-9.2l-.6-4.67-.43-4.605a63.784,63.784,0,0,1-.175-8.185,42.942,42.942,0,0,1,.931-7.338A35.286,35.286,0,0,1,20.779,9.52,38.819,38.819,0,0,1,23.15,4.506c.793-1.378,1.449-2.547,1.961-3.286L25.85,0,24.49.223A18.534,18.534,0,0,0,20.7,1.293a23.843,23.843,0,0,0-5.608,2.914,28.444,28.444,0,0,0-6.273,5.905,36.344,36.344,0,0,0-5.261,9.126A47.6,47.6,0,0,0,.617,30.616C.466,31.742.343,32.6.275,33.449L.089,36.476A55.319,55.319,0,0,0,.075,42.5,66.294,66.294,0,0,0,1.752,54.847,63.161,63.161,0,0,0,5.875,66.688a58.349,58.349,0,0,0,6.241,10.442L13.7,79.088a23.4,23.4,0,0,0,1.619,1.886l2.875,3.363c1.872,2.2,3.62,4.339,5.217,6.375,3.2,4.052,5.859,7.717,7.778,10.385,1.878,2.654,3.079,4.3,3.079,4.3A30.875,30.875,0,0,0,34.94,99.949Z" transform="matrix(-0.999, -0.052, 0.052, -0.999, -19015.432, -3548.153)" fill="#fff" stroke="rgba(0,0,0,0)" stroke-miterlimit="10" stroke-width="1"/>
    <path id="Path_1324" data-name="Path 1324" d="M13.061,51.356,38.062,0,4.94,4.655,0,50.179Z" transform="translate(-19072.064 -3828.15) rotate(8)" fill="#4e5166"/>
    <path id="Path_1323" data-name="Path 1323" d="M943.869,234.538s-2.375,7.031-3.187,10.781-6.236,15.469-11.808,25.721c-2.789,5.115-6.047,10.511-9.651,16.106-3.537,5.587-7.9,11.174-12.086,17.325a136.446,136.446,0,0,0-11.431,20.74,150.021,150.021,0,0,0-7.917,23.118,159.042,159.042,0,0,0-3.808,24.086,153.565,153.565,0,0,0-.113,23.53c1.025,15.435,5.429,29.7,12.042,40.176a63.6,63.6,0,0,0,10.368,13.095,46.053,46.053,0,0,0,5.142,4.589,43.417,43.417,0,0,0,4.682,3.438,52.055,52.055,0,0,0,6.952,4.1l3.309,1.427a21.72,21.72,0,0,1-2.991-1.923c-1.247-1.007-3.507-2.889-5.935-5.282a41.74,41.74,0,0,1-3.9-4.055,55.312,55.312,0,0,1-4.193-5.046,71.779,71.779,0,0,1-8.03-13.323,83.185,83.185,0,0,1-5.776-17.31,112.188,112.188,0,0,1-2.24-20.29,190.6,190.6,0,0,1,.988-22.165,150.673,150.673,0,0,1,3.9-22.44,138.709,138.709,0,0,1,7.012-21.571,157.653,157.653,0,0,1,9.772-19.6c3.913-6.22,7.812-12.3,11.084-18.453a165.147,165.147,0,0,0,8.346-17.6,147.907,147.907,0,0,0,8.408-27.783,50.562,50.562,0,0,0,1.061-7.051C943.947,237.5,943.869,234.538,943.869,234.538Z" transform="translate(-20061.854 -3972.507)" fill="#424b41" stroke="rgba(0,0,0,0)" stroke-width="1"/>
    <path id="Path_557" data-name="Path 557" d="M919.091,229.942q53.736.633,92.259,35.057,39.448,34.428,40.386,90.909-.633,60.452-37.131,97.257-36.653,37.285-95.513,37.918-58.872-.633-95.057-37.918-36.969-36.812-37.588-97.257.927-56.477,40.688-90.909Q865.655,230.571,919.091,229.942Zm0,62.22q-28.333.316-47.789,19.374-19.771,18.58-20.083,44.723.316,31.971,20.083,51.971,19.455,20.32,47.789,20.633,29.1-.316,48.1-20.633,19.454-20,19.767-51.971-.305-26.15-19.767-44.723Q948.2,292.482,919.091,292.162Z" transform="translate(-20484.156 -4002.977)" fill="#4e5166"/>
    <path id="Path_558" data-name="Path 558" d="M887.135,500.99H829.414V228.3h57.721Z" transform="translate(-20225.076 -4012.884)" fill="#4e5166"/>
    <path id="Path_559" data-name="Path 559" d="M875.41,229.143a33.42,33.42,0,0,1,23.254,9.624q8.826,9.785,9.146,23.9-.306,14.119-9.146,23.261a30.718,30.718,0,0,1-23.254,10.263,28.367,28.367,0,0,1-22.481-10.263q-9.924-9.142-9.919-23.261a32.278,32.278,0,0,1,9.919-23.9Q861.765,229.466,875.41,229.143ZM904.281,495.9H846.567V327.313h57.715Z" transform="translate(-20143.096 -4007.795)" fill="#4e5166"/>
  </g>
</svg>
